<svg xmlns="http://www.w3.org/2000/svg" xmlns:xlink="http://www.w3.org/1999/xlink" version="1.1" width="1000" height="1000" viewBox="0 0 1000 1000" xml:space="preserve">
<desc>Created with Fabric.js 3.5.0</desc>
<defs>
</defs>
<rect x="0" y="0" width="100%" height="100%" fill="#ffffff"/>
<g transform="matrix(2.3232 0 0 2.3232 499.9973 499.997)" id="365860">
<g style="" vector-effect="non-scaling-stroke">
		<g transform="matrix(1 0 0 1 76.5 0)" id="Layer_1">
<path style="stroke: none; stroke-width: 1; stroke-dasharray: none; stroke-linecap: butt; stroke-dashoffset: 0; stroke-linejoin: miter; stroke-miterlimit: 4; is-custom-font: none; font-file-url: none; fill: rgb(0,89,156); fill-rule: nonzero; opacity: 1;" transform=" translate(-229.5, -172.175)" d="M 302.107 258.262 c 2.401 -4.159 3.893 -8.845 3.893 -13.053 V 99.14 c 0 -4.208 -1.49 -8.893 -3.892 -13.052 L 153 172.175 L 302.107 258.262 z" stroke-linecap="round"/>
</g>
		<g transform="matrix(1 0 0 1 0 86.087)" id="Layer_1">
<path style="stroke: none; stroke-width: 1; stroke-dasharray: none; stroke-linecap: butt; stroke-dashoffset: 0; stroke-linejoin: miter; stroke-miterlimit: 4; is-custom-font: none; font-file-url: none; fill: rgb(0,68,130); fill-rule: nonzero; opacity: 1;" transform=" translate(-153, -258.262)" d="M 166.25 341.193 l 126.5 -73.034 c 3.644 -2.104 6.956 -5.737 9.357 -9.897 L 153 172.175 L 3.893 258.263 c 2.401 4.159 5.714 7.793 9.357 9.896 l 126.5 73.034 C 147.037 345.401 158.963 345.401 166.25 341.193 z" stroke-linecap="round"/>
</g>
		<g transform="matrix(1 0 0 1 -1.946 -43.044)" id="Layer_1">
<path style="stroke: none; stroke-width: 1; stroke-dasharray: none; stroke-linecap: butt; stroke-dashoffset: 0; stroke-linejoin: miter; stroke-miterlimit: 4; is-custom-font: none; font-file-url: none; fill: rgb(101,154,210); fill-rule: nonzero; opacity: 1;" transform=" translate(-151.054, -129.131)" d="M 302.108 86.087 c -2.402 -4.16 -5.715 -7.793 -9.358 -9.897 L 166.25 3.156 c -7.287 -4.208 -19.213 -4.208 -26.5 0 L 13.25 76.19 C 5.962 80.397 0 90.725 0 99.14 v 146.069 c 0 4.208 1.491 8.894 3.893 13.053 L 153 172.175 L 302.108 86.087 z" stroke-linecap="round"/>
</g>
		<g transform="matrix(1 0 0 1 -6.833 0)" id="Layer_1">
<path style="stroke: none; stroke-width: 1; stroke-dasharray: none; stroke-linecap: butt; stroke-dashoffset: 0; stroke-linejoin: miter; stroke-miterlimit: 4; is-custom-font: none; font-file-url: none; fill: rgb(255,255,255); fill-rule: nonzero; opacity: 1;" transform=" translate(-146.167, -172.175)" d="M 153 274.175 c -56.243 0 -102 -45.757 -102 -102 s 45.757 -102 102 -102 c 36.292 0 70.139 19.53 88.331 50.968 l -44.143 25.544 c -9.105 -15.736 -26.038 -25.512 -44.188 -25.512 c -28.122 0 -51 22.878 -51 51 c 0 28.121 22.878 51 51 51 c 18.152 0 35.085 -9.776 44.191 -25.515 l 44.143 25.543 C 223.142 254.644 189.294 274.175 153 274.175 z" stroke-linecap="round"/>
</g>
		<g transform="matrix(1 0 0 1 85 0)" id="Layer_1">
<polygon style="stroke: none; stroke-width: 1; stroke-dasharray: none; stroke-linecap: butt; stroke-dashoffset: 0; stroke-linejoin: miter; stroke-miterlimit: 4; is-custom-font: none; font-file-url: none; fill: rgb(255,255,255); fill-rule: nonzero; opacity: 1;" points="17,-5.667 5.666,-5.667 5.666,-17 -5.666,-17 -5.666,-5.667 -17,-5.667 -17,5.666 -5.666,5.666 -5.666,17 5.666,17 5.666,5.666 17,5.666 "/>
</g>
		<g transform="matrix(1 0 0 1 127.5 0)" id="Layer_1">
<polygon style="stroke: none; stroke-width: 1; stroke-dasharray: none; stroke-linecap: butt; stroke-dashoffset: 0; stroke-linejoin: miter; stroke-miterlimit: 4; is-custom-font: none; font-file-url: none; fill: rgb(255,255,255); fill-rule: nonzero; opacity: 1;" points="17,-5.667 5.666,-5.667 5.666,-17 -5.666,-17 -5.666,-5.667 -17,-5.667 -17,5.666 -5.666,5.666 -5.666,17 5.666,17 5.666,5.666 17,5.666 "/>
</g>
</g>
</g>
</svg>