<svg xmlns="http://www.w3.org/2000/svg" xmlns:xlink="http://www.w3.org/1999/xlink" version="1.1" width="1000" height="1000" viewBox="0 0 1000 1000" xml:space="preserve">
<desc>Created with Fabric.js 3.5.0</desc>
<defs>
</defs>
<rect x="0" y="0" width="100%" height="100%" fill="#ffffff"/>
<g transform="matrix(1.2698 0 0 1.2698 499.987 499.987)" id="802922">
<g style="" vector-effect="non-scaling-stroke">
		<g transform="matrix(1 0 0 1 0 0)">
<rect style="stroke: none; stroke-width: 1; stroke-dasharray: none; stroke-linecap: butt; stroke-dashoffset: 0; stroke-linejoin: miter; stroke-miterlimit: 4; is-custom-font: none; font-file-url: none; fill: rgb(247,223,30); fill-rule: nonzero; opacity: 1;" x="-315" y="-315" rx="0" ry="0" width="630" height="630"/>
</g>
		<g transform="matrix(1 0 0 1 58.475 118.285)">
<path style="stroke: none; stroke-width: 1; stroke-dasharray: none; stroke-linecap: butt; stroke-dashoffset: 0; stroke-linejoin: miter; stroke-miterlimit: 4; is-custom-font: none; font-file-url: none; fill: rgb(0,0,0); fill-rule: nonzero; opacity: 1;" transform=" translate(-373.475, -433.285)" d="m 423.2 492.19 c 12.69 20.72 29.2 35.95 58.4 35.95 c 24.53 0 40.2 -12.26 40.2 -29.2 c 0 -20.3 -16.1 -27.49 -43.1 -39.3 l -14.8 -6.35 c -42.72 -18.2 -71.1 -41 -71.1 -89.2 c 0 -44.4 33.83 -78.2 86.7 -78.2 c 37.64 0 64.7 13.1 84.2 47.4 l -46.1 29.6 c -10.15 -18.2 -21.1 -25.37 -38.1 -25.37 c -17.34 0 -28.33 11 -28.33 25.37 c 0 17.76 11 24.95 36.4 35.95 l 14.8 6.34 c 50.3 21.57 78.7 43.56 78.7 93 c 0 53.3 -41.87 82.5 -98.1 82.5 c -54.98 0 -90.5 -26.2 -107.88 -60.54 z m -209.13 5.13 c 9.3 16.5 17.76 30.45 38.1 30.45 c 19.45 0 31.72 -7.61 31.72 -37.2 v -201.3 h 59.2 v 202.1 c 0 61.3 -35.94 89.2 -88.4 89.2 c -47.4 0 -74.85 -24.53 -88.81 -54.075 z" stroke-linecap="round"/>
</g>
</g>
</g>
</svg>