<!DOCTYPE svg PUBLIC "-//W3C//DTD SVG 1.1//EN" "http://www.w3.org/Graphics/SVG/1.1/DTD/svg11.dtd">
<!-- Uploaded to: SVG Repo, www.svgrepo.com, Transformed by: SVG Repo Mixer Tools -->
<svg width="800px" height="800px" viewBox="-4.8 -4.8 57.60 57.60" xmlns="http://www.w3.org/2000/svg" fill="#000000" stroke="#000000" stroke-width="0.00048000000000000007">
<g id="SVGRepo_bgCarrier" stroke-width="0"/>
<g id="SVGRepo_tracerCarrier" stroke-linecap="round" stroke-linejoin="round" stroke="#CCCCCC" stroke-width="0.192"/>
<g id="SVGRepo_iconCarrier">
<title>70 Basic icons by Xicons.co</title>
<path d="M13,2H35a2,2,0,0,1,2,2V42a4,4,0,0,1-4,4H15a4,4,0,0,1-4-4V4A2,2,0,0,1,13,2Z" fill="#d7dadb"/>
<path d="M24,39a2,2,0,1,0,2,2,2,2,0,0,0-2-2h0Z" fill="#9ca3a7"/>
<rect x="11" y="9" width="26" height="28" fill="#495660"/>
<path d="M26,7H22a1,1,0,0,1,0-2h4A1,1,0,0,1,26,7Z" fill="#9ca3a7"/>
</g>
</svg>