<svg xmlns="http://www.w3.org/2000/svg" xmlns:xlink="http://www.w3.org/1999/xlink" version="1.1" width="1000" height="1000" viewBox="0 0 1000 1000" xml:space="preserve">
<desc>Created with Fabric.js 3.5.0</desc>
<defs>
</defs>
<rect x="0" y="0" width="100%" height="100%" fill="#ffffff"/>
<g transform="matrix(0.9 0 0 0.9 500 500)" id="391435">
<g style="" vector-effect="non-scaling-stroke">
		<g transform="matrix(1 0 0 1 -450 -450)">
<rect style="stroke: none; stroke-width: 1; stroke-dasharray: none; stroke-linecap: butt; stroke-dashoffset: 0; stroke-linejoin: miter; stroke-miterlimit: 4; is-custom-font: none; font-file-url: none; fill: rgb(255,255,255); fill-rule: nonzero; opacity: 1;" x="-50" y="-50" rx="0" ry="0" width="100" height="100"/>
</g>
		<g transform="matrix(1.5974 0 0 1.5974 0.0275 0.031)" id="path6">
<path style="stroke: none; stroke-width: 11.4943; stroke-dasharray: none; stroke-linecap: butt; stroke-dashoffset: 0; stroke-linejoin: miter; stroke-miterlimit: 4; is-custom-font: none; font-file-url: none; fill: rgb(76,76,76); fill-rule: nonzero; opacity: 1;" transform=" translate(-244.2529, -275.8621)" d="M 488.50575 386.2069 V 128.73563 L 265.51724 0 v 98.850575 l 87.35632 50.574715 c 3.44828 2.29885 3.44828 6.89655 0 8.04597 l -103.44827 59.77012 c -3.44828 2.29885 -6.89655 1.14942 -9.1954 0 L 136.78161 157.47126 c -3.44828 -1.14942 -3.44828 -6.89655 0 -8.04597 L 224.13793 98.850575 V 0 L 0 128.73563 v 257.47127 v -1.14943 v 1.14943 L 85.057471 336.78161 V 235.63218 c 0 -3.44827 4.597701 -5.74712 6.896552 -4.5977 L 195.4023 290.8046 c 3.44827 2.29885 4.5977 4.5977 4.5977 8.04597 V 418.3908 c 0 3.44828 -4.5977 5.74713 -6.89655 4.59771 L 105.74713 372.41379 L 20.689655 421.83908 L 243.67816 551.72414 L 466.66667 422.98851 L 381.6092 373.56322 L 294.25287 424.13793 c -3.44827 2.29885 -6.89655 0 -6.89655 -4.5977 V 300 c 0 -3.44828 2.29885 -6.89655 4.5977 -8.04598 L 395.4023 232.18391 c 3.44827 -2.29885 6.89655 0 6.89655 4.5977 v 101.14942 z" stroke-linecap="round"/>
</g>
		<g transform="matrix(1.5974 0 0 1.5974 193.7045 102.8358)" id="path8">
<path style="stroke: none; stroke-width: 11.4943; stroke-dasharray: none; stroke-linecap: butt; stroke-dashoffset: 0; stroke-linejoin: miter; stroke-miterlimit: 4; is-custom-font: none; font-file-url: none; fill: rgb(0,0,0); fill-rule: nonzero; opacity: 1;" transform=" translate(-365.5172, -340.2299)" d="M 243.67816 551.72414 L 466.66667 422.98851 L 381.6092 373.56322 L 294.25287 424.13793 c -3.44827 2.29885 -6.89655 0 -6.89655 -4.5977 V 300 c 0 -3.44828 2.29885 -6.89655 4.5977 -8.04598 L 395.4023 232.18391 c 3.44827 -2.29885 6.89655 0 6.89655 4.5977 v 101.14942 l 85.05747 49.42529 V 128.73563 L 243.67816 270.11494 Z" stroke-linecap="round"/>
</g>
		<g transform="matrix(1.5974 0 0 1.5974 -0.8904 -224.8901)" id="path10">
<path style="stroke: none; stroke-width: 11.4943; stroke-dasharray: none; stroke-linecap: butt; stroke-dashoffset: 0; stroke-linejoin: miter; stroke-miterlimit: 4; is-custom-font: none; font-file-url: none; fill: rgb(128,128,128); fill-rule: nonzero; opacity: 1;" transform=" translate(-243.6782, -135.0575)" d="m 265.51724 0 v 98.850575 l 87.35632 50.574715 c 3.44828 2.29885 3.44828 6.89655 0 8.04597 l -103.44827 59.77012 c -3.44828 2.29885 -6.89655 1.14942 -9.1954 0 L 136.78161 157.47126 c -3.44828 -1.14942 -3.44828 -6.89655 0 -8.04597 L 224.13793 98.850575 V 0 L 0 128.73563 L 243.67816 270.11494 L 487.35632 128.73563 Z" stroke-linecap="round"/>
</g>
		<g transform="matrix(1.5974 0 0 1.5974 -194.5982 102.8358)" id="path12">
<path style="stroke: none; stroke-width: 11.4943; stroke-dasharray: none; stroke-linecap: butt; stroke-dashoffset: 0; stroke-linejoin: miter; stroke-miterlimit: 4; is-custom-font: none; font-file-url: none; fill: rgb(76,76,76); fill-rule: nonzero; opacity: 1;" transform=" translate(-122.4138, -340.2299)" d="M 194.25287 424.13793 L 106.89655 373.56322 L 21.83908 422.98851 L 244.82759 551.72414 V 270.11494 L 0 128.73563 v 257.47127 v -1.14943 v 1.14943 L 85.057471 336.78161 V 235.63218 c 0 -3.44827 4.597701 -5.74712 6.896552 -4.5977 L 195.4023 290.8046 c 3.44827 2.29885 4.5977 4.5977 4.5977 8.04597 V 418.3908 c 1.14943 4.59771 -2.29885 8.04598 -5.74713 5.74713 z" stroke-linecap="round"/>
</g>
</g>
</g>
</svg>